<mxfile host="app.diagrams.net" agent="Mozilla/5.0 (Windows NT 10.0; Win64; x64) AppleWebKit/537.36 (KHTML, like Gecko) Chrome/135.0.0.0 Safari/537.36" version="27.0.3">
  <diagram name="Seite-1" id="tL6YIj3SVoD36HdEtSRZ">
    <mxGraphModel dx="663" dy="1060" grid="1" gridSize="10" guides="1" tooltips="1" connect="1" arrows="1" fold="1" page="1" pageScale="1" pageWidth="827" pageHeight="1169" math="0" shadow="0">
      <root>
        <mxCell id="0" />
        <mxCell id="1" parent="0" />
        <mxCell id="dGudW0O3s7ElMA1RCUdZ-6" value="" style="edgeStyle=orthogonalEdgeStyle;rounded=0;orthogonalLoop=1;jettySize=auto;html=1;" edge="1" parent="1" source="dGudW0O3s7ElMA1RCUdZ-2" target="dGudW0O3s7ElMA1RCUdZ-5">
          <mxGeometry relative="1" as="geometry" />
        </mxCell>
        <mxCell id="dGudW0O3s7ElMA1RCUdZ-8" value="" style="edgeStyle=orthogonalEdgeStyle;rounded=0;orthogonalLoop=1;jettySize=auto;html=1;" edge="1" parent="1" source="dGudW0O3s7ElMA1RCUdZ-2" target="dGudW0O3s7ElMA1RCUdZ-7">
          <mxGeometry relative="1" as="geometry" />
        </mxCell>
        <mxCell id="dGudW0O3s7ElMA1RCUdZ-10" value="" style="edgeStyle=orthogonalEdgeStyle;rounded=0;orthogonalLoop=1;jettySize=auto;html=1;" edge="1" parent="1" source="dGudW0O3s7ElMA1RCUdZ-2" target="dGudW0O3s7ElMA1RCUdZ-9">
          <mxGeometry relative="1" as="geometry" />
        </mxCell>
        <mxCell id="dGudW0O3s7ElMA1RCUdZ-12" value="" style="edgeStyle=orthogonalEdgeStyle;rounded=0;orthogonalLoop=1;jettySize=auto;html=1;" edge="1" parent="1" source="dGudW0O3s7ElMA1RCUdZ-2" target="dGudW0O3s7ElMA1RCUdZ-11">
          <mxGeometry relative="1" as="geometry" />
        </mxCell>
        <mxCell id="dGudW0O3s7ElMA1RCUdZ-2" value="users" style="rounded=0;whiteSpace=wrap;html=1;fillColor=#FFB366;strokeColor=none;gradientColor=none;" vertex="1" parent="1">
          <mxGeometry x="330" y="450" width="120" height="60" as="geometry" />
        </mxCell>
        <mxCell id="dGudW0O3s7ElMA1RCUdZ-5" value="firstname" style="shape=hexagon;perimeter=hexagonPerimeter2;whiteSpace=wrap;html=1;fixedSize=1;rounded=0;fillColor=#ffe6cc;strokeColor=none;" vertex="1" parent="1">
          <mxGeometry x="330" y="300" width="120" height="80" as="geometry" />
        </mxCell>
        <mxCell id="dGudW0O3s7ElMA1RCUdZ-7" value="lastname" style="shape=hexagon;perimeter=hexagonPerimeter2;whiteSpace=wrap;html=1;fixedSize=1;rounded=0;fillColor=#ffe6cc;strokeColor=none;" vertex="1" parent="1">
          <mxGeometry x="530" y="440" width="120" height="80" as="geometry" />
        </mxCell>
        <mxCell id="dGudW0O3s7ElMA1RCUdZ-9" value="password" style="shape=hexagon;perimeter=hexagonPerimeter2;whiteSpace=wrap;html=1;fixedSize=1;rounded=0;fillColor=#ffe6cc;strokeColor=none;" vertex="1" parent="1">
          <mxGeometry x="330" y="580" width="120" height="80" as="geometry" />
        </mxCell>
        <mxCell id="dGudW0O3s7ElMA1RCUdZ-11" value="username" style="shape=hexagon;perimeter=hexagonPerimeter2;whiteSpace=wrap;html=1;fixedSize=1;rounded=0;fillColor=#ffe6cc;strokeColor=none;" vertex="1" parent="1">
          <mxGeometry x="130" y="440" width="120" height="80" as="geometry" />
        </mxCell>
      </root>
    </mxGraphModel>
  </diagram>
</mxfile>
